Coordinates
version=1
nRows=36
nColumns=19
inDegrees=yes

Units are S.I. units (second, meters, Newtons, ...)
Angles are in degrees.

endheader
time	1_Force_X	1_Force_Y	1_Force_Z	1_Moment_X	1_Moment_Y	1_Moment_Z	1_COP_X	1_COP_Y	1_COP_Z	2_Force_X	2_Force_Y	2_Force_Z	2_Moment_X	2_Moment_Y	2_Moment_Z	2_COP_X	2_COP_Y	2_COP_Z
0.0075	-7.867	360.859	-2.324	-0.292	0.000	0.528	18.931	416.178	-1.429	-0.360	0.000	0.146	0.00000	3.02414	0.00000	0.00000	3.66613	0.00000
0.0100	-7.997	360.857	-2.280	-0.292	0.000	0.528	18.928	416.348	-1.166	-0.360	0.000	0.147	0.00000	2.95143	0.00000	0.00000	3.58156	0.00000
0.0125	-8.215	359.994	-2.366	-0.292	0.000	0.529	18.666	416.519	-1.210	-0.360	0.000	0.147	0.00000	3.00459	0.00000	0.00000	3.56539	0.00000
0.0150	-8.353	361.212	-2.587	-0.292	0.000	0.529	18.802	417.544	-1.950	-0.360	0.000	0.147	0.00000	3.05115	0.00000	0.00000	3.51309	0.00000
0.0175	-8.529	361.036	-2.675	-0.292	0.000	0.529	18.887	417.720	-1.599	-0.360	0.000	0.147	0.00000	3.00085	0.00000	0.00000	3.55237	0.00000
0.0200	-8.179	362.076	-2.767	-0.292	0.000	0.529	18.756	416.687	-1.730	-0.360	0.000	0.147	0.00000	3.03459	0.00000	0.00000	3.52164	0.00000
0.0225	-8.310	360.860	-2.676	-0.292	0.000	0.529	18.842	416.516	-1.469	-0.360	0.000	0.147	0.00000	3.02027	0.00000	0.00000	3.52425	0.00000
0.0250	-8.396	361.207	-2.854	-0.292	0.000	0.529	19.148	417.205	-1.464	-0.360	0.000	0.147	0.00000	2.95522	0.00000	0.00000	3.54825	0.00000
0.0275	-8.440	361.202	-2.900	-0.292	0.000	0.529	19.277	416.863	-1.158	-0.360	0.000	0.147	0.00000	2.90077	0.00000	0.00000	3.54396	0.00000
0.0300	-8.176	359.805	-2.945	-0.292	0.000	0.530	19.361	415.493	-0.504	-0.360	0.000	0.148	0.00000	2.88523	0.00000	0.00000	3.58167	0.00000
0.0325	-8.091	360.152	-2.990	-0.292	0.000	0.530	18.968	416.355	-0.370	-0.360	0.000	0.148	0.00000	2.94976	0.00000	0.00000	3.63140	0.00000
0.0350	-8.268	359.972	-3.257	-0.292	0.000	0.530	19.273	415.148	-0.414	-0.360	0.000	0.148	0.00000	2.86737	0.00000	0.00000	3.55003	0.00000
0.0375	-8.617	361.540	-2.683	-0.292	0.000	0.530	19.360	416.178	-0.453	-0.360	0.000	0.148	0.00000	2.84332	0.00000	0.00000	3.51286	0.00000
0.0400	-8.663	361.709	-2.951	-0.292	0.000	0.530	19.097	416.352	-0.276	-0.360	0.000	0.149	0.00000	2.80734	0.00000	0.00000	3.52193	0.00000
0.0425	-8.664	361.184	-3.217	-0.292	0.000	0.531	19.314	416.010	0.033	-0.360	0.000	0.149	0.00000	2.78092	0.00000	0.00000	3.53376	0.00000
0.0450	-8.707	361.011	-2.907	-0.292	0.000	0.531	19.226	415.323	0.074	-0.360	0.000	0.149	0.00000	2.80518	0.00000	0.00000	3.57302	0.00000
0.0475	-9.101	361.705	-2.777	-0.292	0.000	0.531	19.310	415.153	0.515	-0.360	0.000	0.150	0.00000	2.74994	0.00000	0.00000	3.53117	0.00000
0.0500	-8.706	360.473	-3.090	-0.292	0.000	0.532	19.527	413.611	0.907	-0.360	0.000	0.150	0.00000	2.61977	0.00000	0.00000	3.60099	0.00000
0.0525	-8.838	360.642	-3.137	-0.292	0.000	0.532	19.567	413.957	1.347	-0.360	0.000	0.150	0.00000	2.55531	0.00000	0.00000	3.57879	0.00000
0.0550	-8.929	360.466	-3.313	-0.292	0.000	0.532	19.784	413.442	1.567	-0.360	0.000	0.151	0.00000	2.56016	0.00000	0.00000	3.56786	0.00000
0.0575	-9.145	359.945	-3.137	-0.292	0.000	0.533	19.651	413.791	2.051	-0.360	0.000	0.151	0.00000	2.51506	0.00000	0.00000	3.62796	0.00000
0.0600	-9.192	360.803	-3.275	-0.292	0.000	0.533	19.867	413.275	2.272	-0.360	0.000	0.151	0.00000	2.47060	0.00000	0.00000	3.57665	0.00000
0.0625	-9.320	359.935	-3.318	-0.292	0.000	0.533	19.910	413.792	2.538	-0.360	0.000	0.152	0.00000	2.38403	0.00000	0.00000	3.58807	0.00000
0.0650	-9.801	359.072	-3.226	-0.292	0.000	0.533	19.564	415.163	2.195	-0.360	0.000	0.153	0.00000	2.37133	0.00000	0.00000	3.55365	0.00000
0.0675	-9.409	359.577	-3.278	-0.292	0.000	0.534	19.822	414.137	2.939	-0.361	0.000	0.153	0.00000	2.34123	0.00000	0.00000	3.58970	0.00000
0.0700	-9.584	358.703	-3.454	-0.292	0.000	0.534	19.863	413.625	3.244	-0.361	0.000	0.153	0.00000	2.21365	0.00000	0.00000	3.61207	0.00000
0.0725	-9.626	358.871	-3.282	-0.292	0.000	0.535	20.125	413.625	3.379	-0.361	0.000	0.153	0.00000	2.19238	0.00000	0.00000	3.61147	0.00000
0.0750	-9.890	359.741	-3.415	-0.292	0.000	0.535	19.907	414.482	3.208	-0.360	0.000	0.154	0.00000	2.13868	0.00000	0.00000	3.53616	0.00000
0.0775	-9.981	358.514	-3.681	-0.292	0.000	0.536	20.121	412.940	3.951	-0.361	0.000	0.154	0.00000	2.07289	0.00000	0.00000	3.57758	0.00000
0.0800	-10.245	358.337	-3.771	-0.292	0.000	0.536	20.294	413.116	4.259	-0.361	0.000	0.154	0.00000	2.01021	0.00000	0.00000	3.62406	0.00000
0.0825	-10.376	358.158	-3.685	-0.292	0.000	0.537	20.339	412.943	4.086	-0.361	0.000	0.154	0.00000	1.94525	0.00000	0.00000	3.64037	0.00000
0.0850	-10.462	357.637	-3.685	-0.292	0.000	0.537	20.294	413.115	4.350	-0.361	0.000	0.155	0.00000	1.94895	0.00000	0.00000	3.60862	0.00000
0.0875	-10.814	357.463	-3.684	-0.292	0.000	0.538	20.382	413.285	4.266	-0.361	0.000	0.155	0.00000	1.92792	0.00000	0.00000	3.57300	0.00000
0.0900	-10.777	358.144	-4.308	-0.292	0.000	0.538	20.512	412.944	4.443	-0.361	0.000	0.155	0.00000	1.81324	0.00000	0.00000	3.59932	0.00000
0.0925	-11.216	359.188	-4.220	-0.292	0.000	0.538	20.034	413.282	3.961	-0.360	0.000	0.156	0.00000	1.78377	0.00000	0.00000	3.54513	0.00000
0.0950	-11.390	358.496	-4.174	-0.292	0.000	0.538	19.858	412.424	4.002	-0.360	0.000	0.156	0.00000	1.77814	0.00000	0.00000	3.56472	0.00000
